<!DOCTYPE svg PUBLIC "-//W3C//DTD SVG 1.1//EN" "http://www.w3.org/Graphics/SVG/1.1/DTD/svg11.dtd">
<!-- Uploaded to: SVG Repo, www.svgrepo.com, Transformed by: SVG Repo Mixer Tools -->
<svg version="1.0" id="Layer_1" xmlns="http://www.w3.org/2000/svg" xmlns:xlink="http://www.w3.org/1999/xlink" width="800px" height="800px" viewBox="0 0 64 64" enable-background="new 0 0 64 64" xml:space="preserve" fill="#000000">
<g id="SVGRepo_bgCarrier" stroke-width="0"/>
<g id="SVGRepo_tracerCarrier" stroke-linecap="round" stroke-linejoin="round"/>
<g id="SVGRepo_iconCarrier"> <g> <path fill-rule="evenodd" clip-rule="evenodd" fill="#009dff" d="M48,12H4c-2.211,0-4,1.789-4,4v28c0,2.211,1.789,4,4,4h8v12 c0,1.617,0.973,3.078,2.469,3.695C14.965,63.902,15.484,64,16,64c1.039,0,2.062-0.406,2.828-1.172L33.656,48H48 c2.211,0,4-1.789,4-4V16C52,13.789,50.211,12,48,12z"/> <path fill-rule="evenodd" clip-rule="evenodd" fill="#009dff" d="M60,0H16c-2.211,0-4,1.789-4,4v4h40c2.211,0,4,1.789,4,4v24h4 c2.211,0,4-1.789,4-4V4C64,1.789,62.211,0,60,0z"/> </g> </g>
</svg>